<svg version="1.1" xmlns="http://www.w3.org/2000/svg" style="display: block;" viewBox="0 0 2048 2048" width="1024" height="1024" preserveAspectRatio="none">
<path transform="translate(0,0)" fill="rgb(0,0,0)" d="M 0 0 L 2048 0 L 2048 2048 L 0 2048 L 0 0 z"/>
<path transform="translate(0,0)" fill="rgb(152,253,158)" d="M 1042.24 637.137 C 1051.01 636.943 1057.47 639.522 1063.9 645.408 C 1086.7 666.275 1108 689.469 1129.88 711.33 L 1258.64 839.784 C 1284 864.819 1309.15 890.071 1334.07 915.538 C 1343.98 925.515 1355.84 934.98 1364.52 945.998 C 1368.37 950.883 1369.51 956.263 1369.66 962.397 C 1369.83 969.077 1368.38 972.666 1364.43 977.986 C 1354 992.043 1334.33 1008.73 1321.23 1021.71 L 1246.22 1096.58 C 1232.95 1109.82 1218.79 1122.71 1206.22 1136.58 C 1200.11 1143.31 1196.38 1152.93 1200.09 1161.95 C 1201.84 1166.21 1204.69 1170.13 1207.71 1173.56 C 1219.72 1187.19 1234.1 1199.67 1247.05 1212.5 L 1326.92 1292.07 C 1338.38 1303.48 1353.65 1315.7 1361.57 1329.78 C 1365.09 1336.04 1365.32 1342.37 1365.61 1349.39 C 1366.25 1364.64 1370 1394.21 1358.5 1405.97 C 1349.88 1414.78 1340.81 1415.85 1329.14 1415.91 C 1309.34 1416.02 1241.99 1418.3 1227.75 1413.43 C 1218.37 1410.22 1211.75 1403.84 1204.88 1397.04 L 1052.92 1245.2 L 1004 1196.34 C 995.861 1188.2 986.443 1180.06 979.425 1170.96 C 975.509 1165.88 973.718 1160.23 973.86 1153.78 C 973.985 1148.1 976.343 1143.5 979.584 1138.92 C 988.111 1126.86 1001.21 1116.03 1011.74 1105.55 L 1072.64 1044.91 L 1117.99 999.616 C 1125.6 992.049 1135.16 984.315 1141.07 975.383 C 1143.5 971.709 1144.42 967.397 1144.69 963.046 C 1145.18 955.253 1141.38 950.261 1136.5 944.525 C 1127.11 933.486 1115.69 923.58 1105.45 913.259 C 1091.57 899.262 1070.88 875.225 1055.13 864.662 C 1052.35 862.797 1048.78 862.077 1045.48 861.887 C 1036.09 861.347 1029.19 866.812 1022.63 872.928 C 998.133 895.783 974.873 920.284 951.186 943.996 C 938.099 957.097 907.991 982.746 900 997.566 C 897.349 1002.48 896.274 1008.1 895.889 1013.62 C 895.084 1025.19 895.801 1037.23 895.897 1048.84 L 896.008 1104.57 L 895.98 1286.93 C 896.007 1318.84 897.091 1351.14 895.898 1383.02 C 895.554 1392.21 894.85 1400.86 887.624 1407.28 C 883.725 1410.74 878.849 1413.72 873.689 1414.75 C 857.57 1417.98 835.822 1415.91 819.033 1415.9 C 799.161 1415.87 778.513 1416.93 758.733 1415.42 C 750.115 1414.76 743.339 1412.24 737.784 1405.32 C 734.2 1400.85 731.631 1395.15 731.158 1389.42 C 729.337 1367.37 731.059 1343.91 731.064 1321.72 L 731.08 1178.74 L 731.051 1033.72 C 731.049 1003.64 729.7 973.038 732.804 943.122 C 733.064 940.624 733.384 939.701 734.791 937.604 C 746.958 919.457 766.15 903.408 781.561 887.967 L 865.633 803.869 L 972.101 697.308 C 989.875 679.523 1007.34 660.001 1026.27 643.534 C 1030.94 639.474 1036.34 638.292 1042.24 637.137 z"/>
<path transform="translate(0,0)" fill="rgb(254,254,254)" d="M 204.756 1988.66 C 209.296 1988.5 215.985 1987.74 220.277 1989.5 C 224.524 1991.23 228.57 1994.29 230.291 1998.66 C 231.481 2001.69 231.385 2004.91 229.951 2007.81 C 227.208 2013.38 222.158 2016.69 216.541 2018.79 C 213.605 2019.25 209.645 2020.29 206.817 2019.39 C 205.335 2018.92 205.45 2018.19 204.902 2016.91 C 206.021 2011.41 210.537 2006.06 213.579 2001.38 L 199.641 2000.98 C 200.987 1996.68 202.86 1992.73 204.756 1988.66 z"/>
<path transform="translate(0,0)" fill="rgb(254,254,254)" d="M 182.167 1988.59 L 196.295 1988.69 C 194.232 1994.92 191.62 2001.04 189.244 2007.15 L 202.166 2007.62 L 193.888 2026.64 L 193.239 2027.25 L 192.063 2027.11 C 191.918 2024.68 191.819 2022.83 190.924 2020.53 C 184.644 2018.97 176.36 2019.91 169.815 2019.94 C 172.86 2009.31 177.959 1998.83 182.167 1988.59 z"/>
<path transform="translate(0,0)" fill="rgb(254,254,254)" d="M 269.537 2005.88 C 272.593 2005.97 279.61 2005.41 281.548 2007.81 C 283.584 2010.33 283.583 2015.15 282.785 2018.06 C 281.774 2021.74 279.858 2024.57 276.556 2026.51 C 273.179 2027.07 271.311 2026.3 268.263 2025.07 L 268.2 2022.92 C 270.724 2020.54 273.736 2023.51 277.191 2022.18 L 277.581 2020.36 C 275.627 2020.1 272.494 2019.9 270.739 2019.02 C 268.559 2017.93 267.225 2016.66 266.921 2014.15 C 266.558 2011.16 268.151 2008.38 269.537 2005.88 z"/>
<path transform="translate(0,0)" fill="rgb(254,254,254)" d="M 306.924 2002.17 C 310.054 2002.2 313.478 2002.03 316.482 2003.02 C 318.633 2003.73 321.072 2005.36 321.93 2007.51 C 323.535 2011.52 321.987 2014.53 320.31 2018.18 C 318.214 2018.8 316.042 2019.54 313.887 2019.91 C 311.223 2020.37 310.11 2019.9 307.951 2018.43 C 305.722 2013.65 306.752 2007.35 306.924 2002.17 z"/>
<path transform="translate(0,0)" fill="rgb(0,0,0)" d="M 311.208 2005.27 C 313.564 2005.76 315.011 2006.24 317.006 2007.59 C 318.382 2011.02 317.797 2012.64 317.29 2016.24 C 315.167 2016.32 313.788 2016.42 311.853 2015.47 C 310.036 2012.79 310.971 2008.42 311.208 2005.27 z"/>
<path transform="translate(0,0)" fill="rgb(254,254,254)" d="M 336.462 1999.43 C 341.333 2001.59 337.304 2002.79 339.028 2005.92 C 343.186 2005.25 342.862 2000.78 347.029 2000.11 C 349.746 2002.61 347.124 2003.81 348.63 2007.58 C 345.305 2011.77 347.521 2016.7 344.526 2021.18 C 341.613 2017.06 343.289 2014.68 341.695 2010.38 C 341.203 2009.05 340.292 2009.09 339.082 2008.58 C 336.932 2011.15 337.142 2016.34 336.254 2019.78 L 334.698 2020.03 C 333.055 2018.25 332.252 2017.15 332.107 2014.64 C 331.744 2008.36 332.418 2004.21 336.462 1999.43 z"/>
<path transform="translate(0,0)" fill="rgb(254,254,254)" d="M 405.8 2005.53 C 409.937 2006.16 414.575 2005.39 417.948 2008.28 C 420.186 2010.2 420.554 2011.93 420.855 2014.71 C 419.968 2016.98 419.605 2018.23 417.489 2019.54 L 415.894 2018.62 L 416.07 2015.64 C 415.632 2012.96 415.517 2011.09 413.457 2009.24 C 410.305 2010.9 409.708 2017.06 407.033 2020 C 405.622 2015.16 405.791 2010.52 405.8 2005.53 z"/>
</svg>